<svg width="24" height="24" viewBox="0 0 24 24" fill="none" xmlns="http://www.w3.org/2000/svg">
<g clip-path="url(#clip0_12660_313715)">
<path d="M11.0921 19C10.833 18.9989 10.5846 18.8947 10.4006 18.71L5.86665 14.1203C5.31171 13.5578 5 12.7953 5 12.0004C5 11.2054 5.31171 10.443 5.86665 9.88051L10.4006 5.29078C10.5857 5.10454 10.8361 5 11.097 5C11.358 5 11.6084 5.10454 11.7934 5.29078C11.886 5.38373 11.9595 5.49433 12.0096 5.61618C12.0598 5.73803 12.0856 5.86873 12.0856 6.00073C12.0856 6.13274 12.0598 6.26344 12.0096 6.38529C11.9595 6.50714 11.886 6.61774 11.7934 6.71069L7.25944 11.2904C7.16686 11.3834 7.09337 11.494 7.04323 11.6158C6.99308 11.7377 6.96726 11.8684 6.96726 12.0004C6.96726 12.1324 6.99308 12.2631 7.04323 12.3849C7.09337 12.5068 7.16686 12.6174 7.25944 12.7103L11.7934 17.2901C11.886 17.383 11.9595 17.4936 12.0096 17.6155C12.0598 17.7373 12.0856 17.868 12.0856 18C12.0856 18.132 12.0598 18.2627 12.0096 18.3846C11.9595 18.5064 11.886 18.617 11.7934 18.71C11.7011 18.8027 11.5917 18.876 11.4713 18.9258C11.351 18.9755 11.2221 19.0007 11.0921 19Z" fill="#374957"/>
<path d="M18.0066 19C17.7475 18.9989 17.4991 18.8947 17.3151 18.71L11.3884 12.7103C11.2958 12.6174 11.2223 12.5068 11.1722 12.3849C11.122 12.2631 11.0962 12.1324 11.0962 12.0004C11.0962 11.8684 11.122 11.7377 11.1722 11.6158C11.2223 11.494 11.2958 11.3834 11.3884 11.2904L17.3151 5.29078C17.5002 5.10454 17.7506 5 18.0115 5C18.2725 5 18.5229 5.10454 18.7079 5.29078C18.8005 5.38373 18.874 5.49433 18.9242 5.61618C18.9743 5.73803 19.0001 5.86873 19.0001 6.00073C19.0001 6.13274 18.9743 6.26344 18.9242 6.38529C18.874 6.50714 18.8005 6.61774 18.7079 6.71069L13.4825 12.0004L18.7079 17.2901C18.8005 17.383 18.874 17.4936 18.9242 17.6155C18.9743 17.7373 19.0001 17.868 19.0001 18C19.0001 18.132 18.9743 18.2627 18.9242 18.3846C18.874 18.5064 18.8005 18.617 18.7079 18.71C18.6156 18.8027 18.5062 18.876 18.3858 18.9258C18.2655 18.9755 18.1366 19.0007 18.0066 19Z" fill="#374957"/>
</g>
<defs>
<clipPath id="clip0_12660_313715">
<rect width="14" height="14" fill="white" transform="translate(5 5)"/>
</clipPath>
</defs>
</svg>
