<svg width="24" height="24" viewBox="0 0 24 24" fill="none" xmlns="http://www.w3.org/2000/svg">
<g clip-path="url(#clip0_12660_313719)">
<path d="M12.8982 19C12.7028 18.9992 12.5121 18.9397 12.3501 18.8291C12.1881 18.7186 12.0622 18.5619 11.9882 18.3789C11.9142 18.1958 11.8954 17.9947 11.9343 17.8009C11.9732 17.6071 12.068 17.4293 12.2067 17.2901L16.7505 12.7103C16.8431 12.6174 16.9166 12.5068 16.9668 12.3849C17.0169 12.2631 17.0427 12.1324 17.0427 12.0004C17.0427 11.8684 17.0169 11.7377 16.9668 11.6158C16.9166 11.494 16.8431 11.3834 16.7505 11.2904L12.2067 6.71069C12.1142 6.61774 12.0407 6.50714 11.9905 6.38529C11.9404 6.26344 11.9146 6.13274 11.9146 6.00073C11.9146 5.86873 11.9404 5.73803 11.9905 5.61618C12.0407 5.49433 12.1142 5.38373 12.2067 5.29078C12.3918 5.10454 12.6422 5 12.9031 5C13.1641 5 13.4144 5.10454 13.5995 5.29078L18.1334 9.88051C18.6884 10.443 19.0001 11.2054 19.0001 12.0004C19.0001 12.7953 18.6884 13.5578 18.1334 14.1203L13.5995 18.71C13.5072 18.8027 13.3978 18.876 13.2774 18.9258C13.1571 18.9755 13.0282 19.0007 12.8982 19Z" fill="#374957"/>
<path d="M5.98364 19C5.78828 18.9992 5.59756 18.9397 5.43558 18.8291C5.2736 18.7186 5.14764 18.5619 5.07363 18.3789C4.99962 18.1958 4.98088 17.9947 5.01979 17.8009C5.05869 17.6071 5.15349 17.4293 5.29219 17.2901L10.5176 12.0004L5.29219 6.71069C5.19961 6.61774 5.12612 6.50714 5.07598 6.38529C5.02583 6.26344 5.00001 6.13274 5.00001 6.00073C5.00001 5.86873 5.02583 5.73803 5.07598 5.61618C5.12612 5.49433 5.19961 5.38373 5.29219 5.29078C5.47727 5.10454 5.72762 5 5.98858 5C6.24954 5 6.49989 5.10454 6.68496 5.29078L12.6116 11.2904C12.7042 11.3834 12.7777 11.494 12.8279 11.6158C12.878 11.7377 12.9038 11.8684 12.9038 12.0004C12.9038 12.1324 12.878 12.2631 12.8279 12.3849C12.7777 12.5068 12.7042 12.6174 12.6116 12.7103L6.68496 18.71C6.59267 18.8027 6.4832 18.876 6.36286 18.9258C6.24251 18.9755 6.11364 19.0007 5.98364 19Z" fill="#374957"/>
</g>
<defs>
<clipPath id="clip0_12660_313719">
<rect width="14" height="14" fill="white" transform="translate(5 5)"/>
</clipPath>
</defs>
</svg>
