<svg width="48" height="48" viewBox="0 0 48 48" fill="none" xmlns="http://www.w3.org/2000/svg">
<path d="M13.9999 31.9991C12.0299 32.0013 10.1284 31.2765 8.65964 29.9637C7.19087 28.6509 6.25813 26.8423 6.04012 24.8844C5.82212 22.9265 6.33416 20.9571 7.47817 19.3533C8.62218 17.7495 10.3177 16.6243 12.2399 16.1931C11.6837 13.5993 12.1808 10.8907 13.6216 8.66338C15.0624 6.43601 17.3291 4.87224 19.9229 4.31608C22.5167 3.75992 25.2252 4.25693 27.4526 5.69777C29.68 7.13861 31.2437 9.40526 31.7999 11.9991H31.9999C34.4798 11.9966 36.8722 12.9156 38.7126 14.5778C40.553 16.24 41.7101 18.5267 41.9593 20.9941C42.2086 23.4614 41.5321 25.9334 40.0613 27.93C38.5905 29.9267 36.4302 31.3056 33.9999 31.7991M29.9999 25.9991L23.9999 19.9991M23.9999 19.9991L17.9999 25.9991M23.9999 19.9991V43.9991" stroke="#1462B0" stroke-width="2" stroke-linecap="round" stroke-linejoin="round"/>
</svg>
