<svg width="18" height="18" viewBox="0 0 18 18" fill="#C5C6C9" xmlns="http://www.w3.org/2000/svg">
<g clip-path="url(#clip0_40505_141197)">
<path d="M13.0833 4.33333H12.787L11.513 2.68133C11.3488 2.47005 11.1387 2.29891 10.8986 2.18086C10.6584 2.06282 10.3946 2.00097 10.127 2L7.873 2C7.60542 2.00097 7.34158 2.06282 7.10144 2.18086C6.86131 2.29891 6.65119 2.47005 6.487 2.68133L5.213 4.33333H4.91667C4.1434 4.33426 3.40208 4.64185 2.85529 5.18863C2.30851 5.73541 2.00093 6.47674 2 7.25L2 13.0833C2.00093 13.8566 2.30851 14.5979 2.85529 15.1447C3.40208 15.6915 4.1434 15.9991 4.91667 16H13.0833C13.8566 15.9991 14.5979 15.6915 15.1447 15.1447C15.6915 14.5979 15.9991 13.8566 16 13.0833V7.25C15.9991 6.47674 15.6915 5.73541 15.1447 5.18863C14.5979 4.64185 13.8566 4.33426 13.0833 4.33333ZM7.411 3.39417C7.46564 3.32361 7.53565 3.26645 7.61571 3.22703C7.69577 3.18761 7.78376 3.16696 7.873 3.16667H10.127C10.2162 3.16705 10.3042 3.18773 10.3842 3.22715C10.4643 3.26656 10.5343 3.32368 10.589 3.39417L11.3135 4.33333H6.6865L7.411 3.39417ZM14.8333 13.0833C14.8333 13.5475 14.649 13.9926 14.3208 14.3208C13.9926 14.649 13.5475 14.8333 13.0833 14.8333H4.91667C4.45254 14.8333 4.00742 14.649 3.67923 14.3208C3.35104 13.9926 3.16667 13.5475 3.16667 13.0833V7.25C3.16667 6.78587 3.35104 6.34075 3.67923 6.01256C4.00742 5.68437 4.45254 5.5 4.91667 5.5H13.0833C13.5475 5.5 13.9926 5.68437 14.3208 6.01256C14.649 6.34075 14.8333 6.78587 14.8333 7.25V13.0833Z" />
<path d="M9 6.66669C8.30777 6.66669 7.63108 6.87196 7.05551 7.25654C6.47993 7.64113 6.03133 8.18775 5.76642 8.8273C5.50152 9.46684 5.4322 10.1706 5.56725 10.8495C5.7023 11.5284 6.03564 12.1521 6.52513 12.6416C7.01461 13.131 7.63825 13.4644 8.31719 13.5994C8.99612 13.7345 9.69985 13.6652 10.3394 13.4003C10.9789 13.1354 11.5256 12.6868 11.9101 12.1112C12.2947 11.5356 12.5 10.8589 12.5 10.1667C12.4991 9.23871 12.13 8.34901 11.4739 7.69284C10.8177 7.03666 9.92798 6.66761 9 6.66669ZM9 12.5C8.53851 12.5 8.08739 12.3632 7.70367 12.1068C7.31996 11.8504 7.02089 11.486 6.84428 11.0596C6.66768 10.6333 6.62147 10.1641 6.7115 9.71148C6.80153 9.25885 7.02376 8.84309 7.35009 8.51677C7.67641 8.19045 8.09217 7.96822 8.54479 7.87819C8.99741 7.78816 9.46657 7.83436 9.89293 8.01097C10.3193 8.18757 10.6837 8.48664 10.9401 8.87036C11.1965 9.25407 11.3333 9.7052 11.3333 10.1667C11.3333 10.7855 11.0875 11.379 10.6499 11.8166C10.2123 12.2542 9.61884 12.5 9 12.5Z" />
</g>
<defs>
<clipPath id="clip0_40505_141197">
<rect width="14" height="14" fill="white" transform="translate(2 2)"/>
</clipPath>
</defs>
</svg>
