<svg width="24" height="24" viewBox="0 0 24 24" fill="#7D7E81" xmlns="http://www.w3.org/2000/svg">
<g clip-path="url(#clip0_15890_7982)">
<path fill-rule="evenodd" clip-rule="evenodd" d="M6.16667 20.3333H21.1667C21.3877 20.3333 21.5996 20.4211 21.7559 20.5774C21.9122 20.7337 22 20.9457 22 21.1667C22 21.3877 21.9122 21.5996 21.7559 21.7559C21.5996 21.9122 21.3877 22 21.1667 22H6.16667C5.062 21.9987 4.00296 21.5593 3.22185 20.7782C2.44073 19.997 2.00132 18.938 2 17.8333V2.83333C2 2.61232 2.0878 2.40036 2.24408 2.24408C2.40036 2.0878 2.61232 2 2.83333 2C3.05435 2 3.26631 2.0878 3.42259 2.24408C3.57887 2.40036 3.66667 2.61232 3.66667 2.83333V17.8333C3.66667 18.4964 3.93006 19.1323 4.3989 19.6011C4.86774 20.0699 5.50363 20.3333 6.16667 20.3333ZM7.58909 18.4224C7.43281 18.5787 7.22085 18.6665 6.99984 18.6665C6.77882 18.6665 6.56686 18.5787 6.41058 18.4224C6.2543 18.2661 6.1665 18.0542 6.1665 17.8332V11.9998C6.1665 11.7788 6.2543 11.5669 6.41058 11.4106C6.56686 11.2543 6.77882 11.1665 6.99984 11.1665C7.22085 11.1665 7.43281 11.2543 7.58909 11.4106C7.74537 11.5669 7.83317 11.7788 7.83317 11.9998V17.8332C7.83317 18.0542 7.74537 18.2661 7.58909 18.4224ZM10.3335 10.3333V17.8333C10.3335 18.0543 10.4213 18.2663 10.5776 18.4226C10.7339 18.5789 10.9458 18.6667 11.1668 18.6667C11.3878 18.6667 11.5998 18.5789 11.7561 18.4226C11.9124 18.2663 12.0002 18.0543 12.0002 17.8333V10.3333C12.0002 10.1123 11.9124 9.90036 11.7561 9.74408C11.5998 9.5878 11.3878 9.5 11.1668 9.5C10.9458 9.5 10.7339 9.5878 10.5776 9.74408C10.4213 9.90036 10.3335 10.1123 10.3335 10.3333ZM14.5 17.8333V12.8333C14.5 12.6123 14.5878 12.4004 14.7441 12.2441C14.9004 12.0878 15.1123 12 15.3333 12C15.5544 12 15.7663 12.0878 15.9226 12.2441C16.0789 12.4004 16.1667 12.6123 16.1667 12.8333V17.8333C16.1667 18.0543 16.0789 18.2663 15.9226 18.4226C15.7663 18.5789 15.5544 18.6667 15.3333 18.6667C15.1123 18.6667 14.9004 18.5789 14.7441 18.4226C14.5878 18.2663 14.5 18.0543 14.5 17.8333ZM18.6665 9.49984V17.8332C18.6665 18.0542 18.7543 18.2661 18.9106 18.4224C19.0669 18.5787 19.2788 18.6665 19.4998 18.6665C19.7209 18.6665 19.9328 18.5787 20.0891 18.4224C20.2454 18.2661 20.3332 18.0542 20.3332 17.8332V9.49984C20.3332 9.27882 20.2454 9.06686 20.0891 8.91058C19.9328 8.7543 19.7209 8.6665 19.4998 8.6665C19.2788 8.6665 19.0669 8.7543 18.9106 8.91058C18.7543 9.06686 18.6665 9.27882 18.6665 9.49984ZM7.58883 9.25572C7.43258 9.41202 7.22066 9.49984 6.99966 9.49989C6.83487 9.49986 6.67379 9.45096 6.53678 9.35939C6.39977 9.26782 6.29299 9.13769 6.22993 8.98544C6.16687 8.83319 6.15037 8.66566 6.18251 8.50403C6.21465 8.3424 6.29399 8.19393 6.41049 8.07739L9.39883 5.08906C9.86765 4.62038 10.5034 4.35709 11.1663 4.35709C11.8292 4.35709 12.465 4.62038 12.9338 5.08906L14.7438 6.89822C14.9001 7.05445 15.112 7.14221 15.333 7.14221C15.554 7.14221 15.7659 7.05445 15.9222 6.89822L20.5772 2.24406C20.7343 2.09226 20.9448 2.00826 21.1633 2.01016C21.3818 2.01206 21.5908 2.0997 21.7453 2.25421C21.8998 2.40872 21.9875 2.61773 21.9894 2.83622C21.9913 3.05472 21.9073 3.26522 21.7555 3.42239L17.1005 8.07739C16.6317 8.54607 15.9959 8.80936 15.333 8.80936C14.6701 8.80936 14.0343 8.54607 13.5655 8.07739L11.7555 6.26739C11.5967 6.11608 11.3857 6.03168 11.1663 6.03168C10.947 6.03168 10.736 6.11608 10.5772 6.26739L7.58883 9.25572Z" />
</g>
<defs>
<clipPath id="clip0_15890_7982">
<rect width="20" height="20" fill="white" transform="translate(2 2)"/>
</clipPath>
</defs>
</svg>
