
<svg width="23" height="23" viewBox="0 0 23 23" fill="none" xmlns="http://www.w3.org/2000/svg">
<path d="M13.4445 13.3449C13.9603 12.8292 14.25 12.1297 14.25 11.4004C14.25 10.671 13.9603 9.97157 13.4445 9.45585C12.9288 8.94012 12.2293 8.65039 11.5 8.65039C10.7707 8.65039 10.0712 8.94012 9.55546 9.45585C9.03973 9.97157 8.75 10.671 8.75 11.4004C8.75 12.1297 9.03973 12.8292 9.55546 13.3449C10.0712 13.8607 10.7707 14.1504 11.5 14.1504C12.2293 14.1504 12.9288 13.8607 13.4445 13.3449Z" stroke="#4A9DE6" stroke-width="1.5" stroke-linecap="round" stroke-linejoin="round"/>
<path d="M2.75293 11.401C3.92076 7.68212 7.39585 4.98438 11.4998 4.98438C15.6046 4.98438 19.0788 7.68212 20.2466 11.401C19.0788 15.12 15.6046 17.8177 11.4998 17.8177C7.39585 17.8177 3.92076 15.12 2.75293 11.401Z" stroke="#4A9DE6" stroke-width="1.5" stroke-linecap="round" stroke-linejoin="round"/>
</svg>
