<svg width="20" height="20" viewBox="0 0 20 20" fill="none" xmlns="http://www.w3.org/2000/svg">
<path d="M2.5 15.125C2.69891 15.125 2.88968 15.046 3.03033 14.9053C3.17098 14.7647 3.25 14.5739 3.25 14.375C3.25 14.1761 3.17098 13.9853 3.03033 13.8447C2.88968 13.704 2.69891 13.625 2.5 13.625C2.30109 13.625 2.11032 13.704 1.96967 13.8447M2.5 15.125L1.96967 13.8447M2.5 15.125C2.30109 15.125 2.11032 15.046 1.96967 14.9053M2.5 15.125L1.61612 15.2589L1.96967 14.9053M1.96967 13.8447L1.61612 13.4911L1.96967 14.9053M1.96967 13.8447C1.82902 13.9853 1.75 14.1761 1.75 14.375C1.75 14.5739 1.82902 14.7647 1.96967 14.9053M3.03033 4.90533L3.38388 5.25888L3.03033 4.90533C2.88968 5.04598 2.69891 5.125 2.5 5.125C2.30109 5.125 2.11032 5.04598 1.96967 4.90533C1.82902 4.76468 1.75 4.57391 1.75 4.375C1.75 4.17609 1.82902 3.98532 1.96967 3.84467C2.11032 3.70402 2.30109 3.625 2.5 3.625C2.69891 3.625 2.88968 3.70402 3.03033 3.84467C3.17098 3.98532 3.25 4.17609 3.25 4.375C3.25 4.57391 3.17098 4.76468 3.03033 4.90533ZM6.75 14.375C6.75 14.3418 6.76317 14.3101 6.78661 14.2866C6.81005 14.2632 6.84185 14.25 6.875 14.25H18.125C18.1582 14.25 18.1899 14.2632 18.2134 14.2866C18.2368 14.3101 18.25 14.3418 18.25 14.375C18.25 14.4082 18.2368 14.4399 18.2134 14.4634C18.1899 14.4868 18.1582 14.5 18.125 14.5H6.875C6.84185 14.5 6.81005 14.4868 6.78661 14.4634C6.76317 14.4399 6.75 14.4082 6.75 14.375ZM6.75 9.375C6.75 9.34185 6.76317 9.31005 6.78661 9.28661C6.81005 9.26317 6.84185 9.25 6.875 9.25H18.125C18.1582 9.25 18.1899 9.26317 18.2134 9.28661C18.2368 9.31005 18.25 9.34185 18.25 9.375C18.25 9.40815 18.2368 9.43995 18.2134 9.46339C18.1899 9.48683 18.1582 9.5 18.125 9.5H6.875C6.84185 9.5 6.81005 9.48683 6.78661 9.46339C6.76317 9.43995 6.75 9.40815 6.75 9.375ZM6.75 4.375C6.75 4.34185 6.76317 4.31005 6.78661 4.28661C6.81005 4.26317 6.84185 4.25 6.875 4.25H18.125C18.1582 4.25 18.1899 4.26317 18.2134 4.28661C18.2368 4.31005 18.25 4.34185 18.25 4.375C18.25 4.40815 18.2368 4.43995 18.2134 4.46339C18.1899 4.48683 18.1582 4.5 18.125 4.5H6.875C6.84185 4.5 6.81005 4.48683 6.78661 4.46339C6.76317 4.43995 6.75 4.40815 6.75 4.375ZM3.03033 9.90533C2.88968 10.046 2.69891 10.125 2.5 10.125C2.30109 10.125 2.11032 10.046 1.96967 9.90533C1.82902 9.76468 1.75 9.57391 1.75 9.375C1.75 9.17609 1.82902 8.98532 1.96967 8.84467C2.11032 8.70402 2.30109 8.625 2.5 8.625C2.69891 8.625 2.88968 8.70402 3.03033 8.84467C3.17098 8.98532 3.25 9.17609 3.25 9.375C3.25 9.57391 3.17098 9.76468 3.03033 9.90533Z" fill="#0866FF" stroke="#0866FF"/>
</svg>
