<svg width="22" height="22" viewBox="0 0 22 22" fill="none" xmlns="http://www.w3.org/2000/svg">
<mask id="path-1-inside-1_1251_55863" fill="white">
<path d="M7.6999 8.2502C7.6999 8.10433 7.75785 7.96443 7.86099 7.86129C7.96414 7.75814 8.10403 7.7002 8.2499 7.7002H13.7499C13.8958 7.7002 14.0357 7.75814 14.1388 7.86129C14.242 7.96443 14.2999 8.10433 14.2999 8.2502C14.2999 8.39606 14.242 8.53596 14.1388 8.6391C14.0357 8.74225 13.8958 8.8002 13.7499 8.8002H8.2499C8.10403 8.8002 7.96414 8.74225 7.86099 8.6391C7.75785 8.53596 7.6999 8.39606 7.6999 8.2502ZM8.2499 11.0002C8.10403 11.0002 7.96414 11.0581 7.86099 11.1613C7.75785 11.2644 7.6999 11.4043 7.6999 11.5502C7.6999 11.6961 7.75785 11.836 7.86099 11.9391C7.96414 12.0422 8.10403 12.1002 8.2499 12.1002H13.7499C13.8958 12.1002 14.0357 12.0422 14.1388 11.9391C14.242 11.836 14.2999 11.6961 14.2999 11.5502C14.2999 11.4043 14.242 11.2644 14.1388 11.1613C14.0357 11.0581 13.8958 11.0002 13.7499 11.0002H8.2499ZM7.6999 14.8502C7.6999 14.7043 7.75785 14.5644 7.86099 14.4613C7.96414 14.3581 8.10403 14.3002 8.2499 14.3002H10.4499C10.5958 14.3002 10.7357 14.3581 10.8388 14.4613C10.942 14.5644 10.9999 14.7043 10.9999 14.8502C10.9999 14.9961 10.942 15.136 10.8388 15.2391C10.7357 15.3422 10.5958 15.4002 10.4499 15.4002H8.2499C8.10403 15.4002 7.96414 15.3422 7.86099 15.2391C7.75785 15.136 7.6999 14.9961 7.6999 14.8502ZM6.5999 2.7502C6.5999 2.60433 6.65785 2.46443 6.76099 2.36129C6.86414 2.25814 7.00403 2.2002 7.1499 2.2002C7.29577 2.2002 7.43567 2.25814 7.53881 2.36129C7.64196 2.46443 7.6999 2.60433 7.6999 2.7502V3.3002H10.4499V2.7502C10.4499 2.60433 10.5078 2.46443 10.611 2.36129C10.7141 2.25814 10.854 2.2002 10.9999 2.2002C11.1458 2.2002 11.2857 2.25814 11.3888 2.36129C11.492 2.46443 11.5499 2.60433 11.5499 2.7502V3.3002H14.2999V2.7502C14.2999 2.60433 14.3578 2.46443 14.461 2.36129C14.5641 2.25814 14.704 2.2002 14.8499 2.2002C14.9958 2.2002 15.1357 2.25814 15.2388 2.36129C15.342 2.46443 15.3999 2.60433 15.3999 2.7502V3.3002H15.9499C16.3875 3.3002 16.8072 3.47403 17.1166 3.78347C17.4261 4.0929 17.5999 4.51259 17.5999 4.9502V10.1554C17.2413 10.3094 16.9047 10.5316 16.6121 10.8253L16.4999 10.9375V4.9502C16.4999 4.80433 16.442 4.66443 16.3388 4.56129C16.2357 4.45814 16.0958 4.4002 15.9499 4.4002H6.0499C5.90403 4.4002 5.76414 4.45814 5.66099 4.56129C5.55785 4.66443 5.4999 4.80433 5.4999 4.9502V18.1502C5.4999 18.2961 5.55785 18.436 5.66099 18.5391C5.76414 18.6423 5.90403 18.7002 6.0499 18.7002H10.1419L9.9626 19.4185C9.93034 19.5476 9.91054 19.6748 9.9032 19.8002H6.0499C5.6123 19.8002 5.19261 19.6264 4.88318 19.3169C4.57374 19.0075 4.3999 18.5878 4.3999 18.1502V4.9502C4.3999 4.51259 4.57374 4.0929 4.88318 3.78347C5.19261 3.47403 5.6123 3.3002 6.0499 3.3002H6.5999V2.7502ZM17.3909 11.603L12.0779 16.916C11.7684 17.2256 11.5486 17.6134 11.4421 18.038L11.0296 19.6858C10.9889 19.8497 10.9913 20.0213 11.0366 20.184C11.0818 20.3467 11.1684 20.4949 11.2878 20.6142C11.4073 20.7336 11.5556 20.82 11.7183 20.8651C11.881 20.9102 12.0527 20.9124 12.2165 20.8716L13.8643 20.4602C14.2889 20.3537 14.6767 20.1339 14.9863 19.8244L20.2993 14.5114C20.6801 14.1246 20.8925 13.6029 20.8903 13.0601C20.8881 12.5173 20.6714 11.9974 20.2875 11.6137C19.9036 11.2299 19.3837 11.0135 18.8409 11.0115C18.2981 11.0095 17.7765 11.2221 17.3898 11.603"/>
</mask>
<path d="M7.6999 8.2502C7.6999 8.10433 7.75785 7.96443 7.86099 7.86129C7.96414 7.75814 8.10403 7.7002 8.2499 7.7002H13.7499C13.8958 7.7002 14.0357 7.75814 14.1388 7.86129C14.242 7.96443 14.2999 8.10433 14.2999 8.2502C14.2999 8.39606 14.242 8.53596 14.1388 8.6391C14.0357 8.74225 13.8958 8.8002 13.7499 8.8002H8.2499C8.10403 8.8002 7.96414 8.74225 7.86099 8.6391C7.75785 8.53596 7.6999 8.39606 7.6999 8.2502ZM8.2499 11.0002C8.10403 11.0002 7.96414 11.0581 7.86099 11.1613C7.75785 11.2644 7.6999 11.4043 7.6999 11.5502C7.6999 11.6961 7.75785 11.836 7.86099 11.9391C7.96414 12.0422 8.10403 12.1002 8.2499 12.1002H13.7499C13.8958 12.1002 14.0357 12.0422 14.1388 11.9391C14.242 11.836 14.2999 11.6961 14.2999 11.5502C14.2999 11.4043 14.242 11.2644 14.1388 11.1613C14.0357 11.0581 13.8958 11.0002 13.7499 11.0002H8.2499ZM7.6999 14.8502C7.6999 14.7043 7.75785 14.5644 7.86099 14.4613C7.96414 14.3581 8.10403 14.3002 8.2499 14.3002H10.4499C10.5958 14.3002 10.7357 14.3581 10.8388 14.4613C10.942 14.5644 10.9999 14.7043 10.9999 14.8502C10.9999 14.9961 10.942 15.136 10.8388 15.2391C10.7357 15.3422 10.5958 15.4002 10.4499 15.4002H8.2499C8.10403 15.4002 7.96414 15.3422 7.86099 15.2391C7.75785 15.136 7.6999 14.9961 7.6999 14.8502ZM6.5999 2.7502C6.5999 2.60433 6.65785 2.46443 6.76099 2.36129C6.86414 2.25814 7.00403 2.2002 7.1499 2.2002C7.29577 2.2002 7.43567 2.25814 7.53881 2.36129C7.64196 2.46443 7.6999 2.60433 7.6999 2.7502V3.3002H10.4499V2.7502C10.4499 2.60433 10.5078 2.46443 10.611 2.36129C10.7141 2.25814 10.854 2.2002 10.9999 2.2002C11.1458 2.2002 11.2857 2.25814 11.3888 2.36129C11.492 2.46443 11.5499 2.60433 11.5499 2.7502V3.3002H14.2999V2.7502C14.2999 2.60433 14.3578 2.46443 14.461 2.36129C14.5641 2.25814 14.704 2.2002 14.8499 2.2002C14.9958 2.2002 15.1357 2.25814 15.2388 2.36129C15.342 2.46443 15.3999 2.60433 15.3999 2.7502V3.3002H15.9499C16.3875 3.3002 16.8072 3.47403 17.1166 3.78347C17.4261 4.0929 17.5999 4.51259 17.5999 4.9502V10.1554C17.2413 10.3094 16.9047 10.5316 16.6121 10.8253L16.4999 10.9375V4.9502C16.4999 4.80433 16.442 4.66443 16.3388 4.56129C16.2357 4.45814 16.0958 4.4002 15.9499 4.4002H6.0499C5.90403 4.4002 5.76414 4.45814 5.66099 4.56129C5.55785 4.66443 5.4999 4.80433 5.4999 4.9502V18.1502C5.4999 18.2961 5.55785 18.436 5.66099 18.5391C5.76414 18.6423 5.90403 18.7002 6.0499 18.7002H10.1419L9.9626 19.4185C9.93034 19.5476 9.91054 19.6748 9.9032 19.8002H6.0499C5.6123 19.8002 5.19261 19.6264 4.88318 19.3169C4.57374 19.0075 4.3999 18.5878 4.3999 18.1502V4.9502C4.3999 4.51259 4.57374 4.0929 4.88318 3.78347C5.19261 3.47403 5.6123 3.3002 6.0499 3.3002H6.5999V2.7502ZM17.3909 11.603L12.0779 16.916C11.7684 17.2256 11.5486 17.6134 11.4421 18.038L11.0296 19.6858C10.9889 19.8497 10.9913 20.0213 11.0366 20.184C11.0818 20.3467 11.1684 20.4949 11.2878 20.6142C11.4073 20.7336 11.5556 20.82 11.7183 20.8651C11.881 20.9102 12.0527 20.9124 12.2165 20.8716L13.8643 20.4602C14.2889 20.3537 14.6767 20.1339 14.9863 19.8244L20.2993 14.5114C20.6801 14.1246 20.8925 13.6029 20.8903 13.0601C20.8881 12.5173 20.6714 11.9974 20.2875 11.6137C19.9036 11.2299 19.3837 11.0135 18.8409 11.0115C18.2981 11.0095 17.7765 11.2221 17.3898 11.603" fill="#F69641"/>
<path d="M7.1499 2.2002V3.7002V2.2002ZM7.6999 3.3002H6.1999V4.8002H7.6999V3.3002ZM10.4499 3.3002V4.8002H11.9499V3.3002H10.4499ZM10.9999 2.2002V3.7002V2.2002ZM11.5499 3.3002H10.0499V4.8002H11.5499V3.3002ZM14.2999 3.3002V4.8002H15.7999V3.3002H14.2999ZM14.8499 2.2002V3.7002V2.2002ZM15.3999 3.3002H13.8999V4.8002H15.3999V3.3002ZM17.5999 4.9502H19.0999H17.5999ZM17.5999 10.1554L18.1918 11.5337L19.0999 11.1437V10.1554H17.5999ZM16.6121 10.8253L17.6728 11.886L17.6748 11.884L16.6121 10.8253ZM16.4999 10.9375H14.9999V14.5588L17.5606 11.9982L16.4999 10.9375ZM15.9499 4.4002V5.9002V4.4002ZM6.0499 4.4002V5.9002V4.4002ZM10.1419 18.7002L11.5972 19.0635L12.0624 17.2002H10.1419V18.7002ZM9.9626 19.4185L11.4178 19.7823L11.4179 19.7818L9.9626 19.4185ZM9.9032 19.8002V21.3002H11.318L11.4006 19.8878L9.9032 19.8002ZM6.0499 3.3002L6.0499 1.8002L6.0499 3.3002ZM6.5999 3.3002V4.8002H8.0999V3.3002H6.5999ZM12.0779 16.916L11.0172 15.8553L11.0171 15.8555L12.0779 16.916ZM11.4421 18.038L9.9872 17.6729L9.987 17.6737L11.4421 18.038ZM11.0296 19.6858L9.5745 19.3215L9.57378 19.3244L11.0296 19.6858ZM12.2165 20.8716L12.5792 22.3271L12.5798 22.3269L12.2165 20.8716ZM13.8643 20.4602L14.2276 21.9155L14.2294 21.9151L13.8643 20.4602ZM14.9863 19.8244L16.0468 20.8852L16.047 20.8851L14.9863 19.8244ZM20.2993 14.5114L21.36 15.5721L21.3683 15.5636L20.2993 14.5114ZM9.1999 8.2502C9.1999 8.50215 9.09981 8.74379 8.92165 8.92195L6.80033 6.80063C6.41588 7.18508 6.1999 7.7065 6.1999 8.2502H9.1999ZM8.92165 8.92195C8.74349 9.10011 8.50186 9.2002 8.2499 9.2002V6.2002C7.70621 6.2002 7.18478 6.41618 6.80033 6.80063L8.92165 8.92195ZM8.2499 9.2002H13.7499V6.2002H8.2499V9.2002ZM13.7499 9.2002C13.4979 9.2002 13.2563 9.10011 13.0782 8.92195L15.1995 6.80063C14.815 6.41618 14.2936 6.2002 13.7499 6.2002V9.2002ZM13.0782 8.92195C12.9 8.74379 12.7999 8.50215 12.7999 8.2502H15.7999C15.7999 7.7065 15.5839 7.18508 15.1995 6.80063L13.0782 8.92195ZM12.7999 8.2502C12.7999 7.99824 12.9 7.75661 13.0782 7.57844L15.1995 9.69976C15.5839 9.31531 15.7999 8.79389 15.7999 8.2502H12.7999ZM13.0782 7.57844C13.2563 7.40028 13.4979 7.3002 13.7499 7.3002V10.3002C14.2936 10.3002 14.815 10.0842 15.1995 9.69976L13.0782 7.57844ZM13.7499 7.3002H8.2499V10.3002H13.7499V7.3002ZM8.2499 7.3002C8.50186 7.3002 8.74349 7.40029 8.92165 7.57844L6.80033 9.69976C7.18478 10.0842 7.70621 10.3002 8.2499 10.3002V7.3002ZM8.92165 7.57844C9.09981 7.7566 9.1999 7.99824 9.1999 8.2502H6.1999C6.1999 8.79389 6.41588 9.31532 6.80033 9.69976L8.92165 7.57844ZM8.2499 9.5002C7.70621 9.5002 7.18479 9.71617 6.80033 10.1006L8.92165 12.2219C8.74349 12.4001 8.50186 12.5002 8.2499 12.5002V9.5002ZM6.80033 10.1006C6.41588 10.4851 6.1999 11.0065 6.1999 11.5502H9.1999C9.1999 11.8022 9.09981 12.0438 8.92165 12.2219L6.80033 10.1006ZM6.1999 11.5502C6.1999 12.0939 6.41588 12.6153 6.80033 12.9998L8.92165 10.8784C9.09981 11.0566 9.1999 11.2982 9.1999 11.5502H6.1999ZM6.80033 12.9998C7.18479 13.3842 7.70621 13.6002 8.2499 13.6002V10.6002C8.50186 10.6002 8.74349 10.7003 8.92165 10.8784L6.80033 12.9998ZM8.2499 13.6002H13.7499V10.6002H8.2499V13.6002ZM13.7499 13.6002C14.2936 13.6002 14.815 13.3842 15.1995 12.9998L13.0782 10.8784C13.2563 10.7003 13.498 10.6002 13.7499 10.6002V13.6002ZM15.1995 12.9998C15.5839 12.6153 15.7999 12.0939 15.7999 11.5502H12.7999C12.7999 11.2982 12.9 11.0566 13.0782 10.8784L15.1995 12.9998ZM15.7999 11.5502C15.7999 11.0065 15.5839 10.4851 15.1995 10.1006L13.0782 12.2219C12.9 12.0438 12.7999 11.8021 12.7999 11.5502H15.7999ZM15.1995 10.1006C14.815 9.71617 14.2936 9.5002 13.7499 9.5002V12.5002C13.498 12.5002 13.2563 12.4001 13.0782 12.2219L15.1995 10.1006ZM13.7499 9.5002H8.2499V12.5002H13.7499V9.5002ZM9.1999 14.8502C9.1999 15.1022 9.09981 15.3438 8.92165 15.5219L6.80033 13.4006C6.41588 13.7851 6.1999 14.3065 6.1999 14.8502H9.1999ZM8.92165 15.5219C8.74349 15.7001 8.50186 15.8002 8.2499 15.8002V12.8002C7.70621 12.8002 7.18479 13.0162 6.80033 13.4006L8.92165 15.5219ZM8.2499 15.8002H10.4499V12.8002H8.2499V15.8002ZM10.4499 15.8002C10.198 15.8002 9.95631 15.7001 9.77815 15.5219L11.8995 13.4006C11.515 13.0162 10.9936 12.8002 10.4499 12.8002V15.8002ZM9.77815 15.5219C9.59999 15.3438 9.4999 15.1021 9.4999 14.8502H12.4999C12.4999 14.3065 12.2839 13.7851 11.8995 13.4006L9.77815 15.5219ZM9.4999 14.8502C9.4999 14.5982 9.59999 14.3566 9.77815 14.1784L11.8995 16.2998C12.2839 15.9153 12.4999 15.3939 12.4999 14.8502H9.4999ZM9.77815 14.1784C9.95631 14.0003 10.198 13.9002 10.4499 13.9002V16.9002C10.9936 16.9002 11.515 16.6842 11.8995 16.2998L9.77815 14.1784ZM10.4499 13.9002H8.2499V16.9002H10.4499V13.9002ZM8.2499 13.9002C8.50186 13.9002 8.74349 14.0003 8.92165 14.1784L6.80033 16.2998C7.18479 16.6842 7.70621 16.9002 8.2499 16.9002V13.9002ZM8.92165 14.1784C9.09981 14.3566 9.1999 14.5982 9.1999 14.8502H6.1999C6.1999 15.3939 6.41588 15.9153 6.80033 16.2998L8.92165 14.1784ZM8.0999 2.7502C8.0999 3.00215 7.99981 3.24379 7.82165 3.42195L5.70033 1.30063C5.31588 1.68508 5.0999 2.2065 5.0999 2.7502H8.0999ZM7.82165 3.42195C7.6435 3.60011 7.40186 3.7002 7.1499 3.7002V0.700195C6.60621 0.700195 6.08478 0.916178 5.70033 1.30063L7.82165 3.42195ZM7.1499 3.7002C6.89795 3.7002 6.65631 3.60011 6.47815 3.42195L8.59947 1.30063C8.21502 0.916178 7.6936 0.700195 7.1499 0.700195V3.7002ZM6.47815 3.42195C6.29999 3.24379 6.1999 3.00215 6.1999 2.7502H9.1999C9.1999 2.2065 8.98392 1.68508 8.59947 1.30063L6.47815 3.42195ZM6.1999 2.7502V3.3002H9.1999V2.7502H6.1999ZM7.6999 4.8002H10.4499V1.8002H7.6999V4.8002ZM11.9499 3.3002V2.7502H8.9499V3.3002H11.9499ZM11.9499 2.7502C11.9499 3.00215 11.8498 3.24379 11.6717 3.42195L9.55033 1.30063C9.16588 1.68508 8.9499 2.2065 8.9499 2.7502H11.9499ZM11.6717 3.42195C11.4935 3.60011 11.2519 3.7002 10.9999 3.7002L10.9999 0.700195C10.4562 0.700195 9.93478 0.916177 9.55033 1.30063L11.6717 3.42195ZM10.9999 3.7002C10.7479 3.7002 10.5063 3.60011 10.3282 3.42195L12.4495 1.30063C12.065 0.916177 11.5436 0.700195 10.9999 0.700195L10.9999 3.7002ZM10.3282 3.42195C10.15 3.24379 10.0499 3.00215 10.0499 2.7502H13.0499C13.0499 2.2065 12.8339 1.68508 12.4495 1.30063L10.3282 3.42195ZM10.0499 2.7502V3.3002H13.0499V2.7502H10.0499ZM11.5499 4.8002H14.2999V1.8002H11.5499V4.8002ZM15.7999 3.3002V2.7502H12.7999V3.3002H15.7999ZM15.7999 2.7502C15.7999 3.00215 15.6998 3.24379 15.5217 3.42195L13.4003 1.30063C13.0159 1.68508 12.7999 2.2065 12.7999 2.7502H15.7999ZM15.5217 3.42195C15.3435 3.60011 15.1019 3.7002 14.8499 3.7002V0.700195C14.3062 0.700195 13.7848 0.916177 13.4003 1.30063L15.5217 3.42195ZM14.8499 3.7002C14.5979 3.7002 14.3563 3.60011 14.1782 3.42195L16.2995 1.30063C15.915 0.916177 15.3936 0.700195 14.8499 0.700195V3.7002ZM14.1782 3.42195C14 3.24379 13.8999 3.00215 13.8999 2.7502H16.8999C16.8999 2.2065 16.6839 1.68508 16.2995 1.30063L14.1782 3.42195ZM13.8999 2.7502V3.3002H16.8999V2.7502H13.8999ZM15.3999 4.8002H15.9499V1.8002H15.3999V4.8002ZM15.9499 4.8002C15.9897 4.8002 16.0278 4.816 16.056 4.84413L18.1773 2.72281C17.5865 2.13207 16.7853 1.8002 15.9499 1.8002V4.8002ZM16.056 4.84413C16.0841 4.87226 16.0999 4.91041 16.0999 4.9502H19.0999C19.0999 4.11476 18.768 3.31355 18.1773 2.72281L16.056 4.84413ZM16.0999 4.9502V10.1554H19.0999V4.9502H16.0999ZM17.008 8.77712C16.4805 9.00366 15.9824 9.33208 15.5495 9.76663L17.6748 11.884C17.827 11.7311 18.0021 11.6151 18.1918 11.5337L17.008 8.77712ZM15.5514 9.76464L15.4392 9.87684L17.5606 11.9982L17.6728 11.886L15.5514 9.76464ZM17.9999 10.9375V4.9502H14.9999V10.9375H17.9999ZM17.9999 4.9502C17.9999 4.4065 17.7839 3.88508 17.3995 3.50063L15.2782 5.62195C15.1 5.44379 14.9999 5.20215 14.9999 4.9502H17.9999ZM17.3995 3.50063C17.015 3.11618 16.4936 2.9002 15.9499 2.9002V5.9002C15.6979 5.9002 15.4563 5.80011 15.2782 5.62195L17.3995 3.50063ZM15.9499 2.9002H6.0499V5.9002H15.9499V2.9002ZM6.0499 2.9002C5.50621 2.9002 4.98478 3.11618 4.60033 3.50063L6.72165 5.62195C6.5435 5.80011 6.30186 5.9002 6.0499 5.9002L6.0499 2.9002ZM4.60033 3.50063C4.21588 3.88508 3.9999 4.4065 3.9999 4.9502H6.9999C6.9999 5.20215 6.89981 5.44379 6.72165 5.62195L4.60033 3.50063ZM3.9999 4.9502V18.1502H6.9999V4.9502H3.9999ZM3.9999 18.1502C3.9999 18.6939 4.21588 19.2153 4.60033 19.5998L6.72165 17.4784C6.89981 17.6566 6.9999 17.8982 6.9999 18.1502H3.9999ZM4.60033 19.5998C4.98479 19.9842 5.50621 20.2002 6.0499 20.2002V17.2002C6.30186 17.2002 6.54349 17.3003 6.72165 17.4784L4.60033 19.5998ZM6.0499 20.2002H10.1419V17.2002H6.0499V20.2002ZM8.68656 18.3369L8.50726 19.0552L11.4179 19.7818L11.5972 19.0635L8.68656 18.3369ZM8.50739 19.0547C8.45381 19.269 8.41885 19.4887 8.40576 19.7126L11.4006 19.8878C11.4022 19.8609 11.4069 19.8261 11.4178 19.7823L8.50739 19.0547ZM9.9032 18.3002H6.0499V21.3002H9.9032V18.3002ZM6.0499 18.3002C6.01012 18.3002 5.97197 18.2844 5.94384 18.2563L3.82252 20.3776C4.41325 20.9683 5.21447 21.3002 6.0499 21.3002V18.3002ZM5.94384 18.2563C5.91571 18.2281 5.8999 18.19 5.8999 18.1502H2.8999C2.8999 18.9856 3.23178 19.7868 3.82252 20.3776L5.94384 18.2563ZM5.8999 18.1502V4.9502H2.8999V18.1502H5.8999ZM5.8999 4.9502C5.8999 4.91041 5.91571 4.87226 5.94384 4.84413L3.82252 2.72281C3.23178 3.31355 2.8999 4.11476 2.8999 4.9502H5.8999ZM5.94384 4.84413C5.97197 4.816 6.01012 4.8002 6.0499 4.8002L6.0499 1.8002C5.21447 1.8002 4.41326 2.13207 3.82252 2.72281L5.94384 4.84413ZM6.0499 4.8002H6.5999V1.8002H6.0499V4.8002ZM8.0999 3.3002V2.7502H5.0999V3.3002H8.0999ZM16.3302 10.5423L11.0172 15.8553L13.1386 17.9767L18.4516 12.6637L16.3302 10.5423ZM11.0171 15.8555C10.5157 16.357 10.1598 16.9851 9.9872 17.6729L12.897 18.4031C12.9375 18.2416 13.021 18.0942 13.1387 17.9765L11.0171 15.8555ZM9.987 17.6737L9.5745 19.3215L12.4847 20.0501L12.8972 18.4023L9.987 17.6737ZM9.57378 19.3244C9.47077 19.7394 9.47685 20.174 9.59143 20.5859L12.4817 19.782C12.5058 19.8686 12.5071 19.96 12.4854 20.0472L9.57378 19.3244ZM9.59143 20.5859C9.706 20.9979 9.92517 21.3732 10.2277 21.6754L12.348 19.5531C12.4116 19.6166 12.4576 19.6955 12.4817 19.782L9.59143 20.5859ZM10.2277 21.6754C10.5301 21.9776 10.9057 22.1964 11.3177 22.3106L12.1189 19.4196C12.2055 19.4436 12.2844 19.4896 12.348 19.5531L10.2277 21.6754ZM11.3177 22.3106C11.7298 22.4248 12.1643 22.4305 12.5792 22.3271L11.8538 19.4161C11.941 19.3944 12.0323 19.3956 12.1189 19.4196L11.3177 22.3106ZM12.5798 22.3269L14.2276 21.9155L13.501 19.0049L11.8532 19.4163L12.5798 22.3269ZM14.2294 21.9151C14.9172 21.7425 15.5453 21.3866 16.0468 20.8852L13.9258 18.7636C13.8081 18.8813 13.6607 18.9648 13.4992 19.0053L14.2294 21.9151ZM16.047 20.8851L21.36 15.5721L19.2386 13.4507L13.9256 18.7637L16.047 20.8851ZM21.3683 15.5636C22.0268 14.8947 22.3941 13.9926 22.3903 13.054L19.3903 13.0662C19.3909 13.2132 19.3334 13.3544 19.2303 13.4592L21.3683 15.5636ZM22.3903 13.054C22.3864 12.1154 22.0118 11.2164 21.348 10.5528L19.2271 12.6745C19.331 12.7784 19.3897 12.9192 19.3903 13.0662L22.3903 13.054ZM21.348 10.5528C20.6842 9.88924 19.785 9.51494 18.8464 9.51149L18.8353 12.5115C18.9823 12.512 19.1231 12.5706 19.2271 12.6745L21.348 10.5528ZM18.8464 9.51149C17.9078 9.50803 17.0059 9.87569 16.3372 10.5344L18.4424 12.6716C18.5471 12.5685 18.6884 12.5109 18.8353 12.5115L18.8464 9.51149Z" fill="#F69641" mask="url(#path-1-inside-1_1251_55863)"/>
</svg>
