<svg width="23" height="22" viewBox="0 0 23 22" fill="none" xmlns="http://www.w3.org/2000/svg">
<path d="M10.5832 4.58242H5.99984C5.51361 4.58242 5.04729 4.77558 4.70347 5.1194C4.35966 5.46321 4.1665 5.92953 4.1665 6.41576V16.4991C4.1665 16.9853 4.35966 17.4516 4.70347 17.7955C5.04729 18.1393 5.51361 18.3324 5.99984 18.3324H16.0832C16.5694 18.3324 17.0357 18.1393 17.3795 17.7955C17.7233 17.4516 17.9165 16.9853 17.9165 16.4991V11.9158M16.6203 3.28626C16.7895 3.11116 16.9918 2.97149 17.2154 2.8754C17.4391 2.77932 17.6797 2.72875 17.9231 2.72663C18.1665 2.72452 18.4079 2.7709 18.6333 2.86308C18.8586 2.95527 19.0633 3.0914 19.2354 3.26353C19.4075 3.43567 19.5437 3.64037 19.6358 3.86568C19.728 4.09099 19.7744 4.3324 19.7723 4.57583C19.7702 4.81926 19.7196 5.05983 19.6235 5.2835C19.5274 5.50717 19.3878 5.70947 19.2127 5.87859L11.3422 13.7491H8.74984V11.1568L16.6203 3.28626Z" stroke="#1462B0" stroke-width="1.5" stroke-linecap="round" stroke-linejoin="round"/>
</svg>
