<svg width="23" height="22" viewBox="0 0 23 22" fill="none" xmlns="http://www.w3.org/2000/svg">
<path d="M9.66675 10.0833V15.5833M13.3334 10.0833V15.5833M4.16675 6.41667H18.8334M17.9167 6.41667L17.122 17.5468C17.0891 18.0094 16.8821 18.4422 16.5428 18.7583C16.2034 19.0743 15.757 19.25 15.2932 19.25H7.70691C7.24321 19.25 6.79673 19.0743 6.45739 18.7583C6.11806 18.4422 5.91109 18.0094 5.87816 17.5468L5.08341 6.41667H17.9167ZM14.2501 6.41667V3.66667C14.2501 3.42355 14.1535 3.19039 13.9816 3.01849C13.8097 2.84658 13.5765 2.75 13.3334 2.75H9.66675C9.42363 2.75 9.19048 2.84658 9.01857 3.01849C8.84666 3.19039 8.75008 3.42355 8.75008 3.66667V6.41667H14.2501Z" stroke="#FF384C" stroke-width="1.5" stroke-linecap="round" stroke-linejoin="round"/>
</svg>
