<svg width="23" height="23" viewBox="0 0 23 23" fill="none" xmlns="http://www.w3.org/2000/svg">
<path d="M3.25 12.3507C3.33047 11.8041 3.36379 11.2458 3.49872 10.7131C4.18351 8.01178 5.81238 6.07006 8.3906 5.0197C12.4392 3.36995 16.8918 5.0746 18.8734 8.96577C19.37 9.94049 19.6456 10.9795 19.7142 12.0721C19.7199 12.1652 19.7378 12.258 19.75 12.3511C19.75 12.4727 19.75 12.5947 19.75 12.7162C19.7362 12.7455 19.7199 12.7744 19.7085 12.8049C19.5923 13.1229 19.3058 13.3099 19.0042 13.2636C18.6759 13.2132 18.4507 12.9671 18.4418 12.6219C18.4215 11.8399 18.3272 11.0681 18.0423 10.337C16.9865 7.62954 15.0235 6.02777 12.1202 5.74108C8.45319 5.37917 5.25073 7.91744 4.64275 11.5638C4.14775 14.5331 5.80506 17.6317 8.55479 18.8887C9.45945 19.3022 10.4031 19.5304 11.3996 19.5446C11.5374 19.5466 11.6865 19.5747 11.8097 19.6341C12.0673 19.7581 12.199 20.0708 12.1344 20.3355C12.0608 20.6373 11.8044 20.841 11.4825 20.8402C9.78904 20.8361 8.23576 20.3624 6.84708 19.3986C5.04549 18.149 3.90431 16.4444 3.44182 14.2993C3.36379 13.9374 3.33778 13.5645 3.2878 13.1969C3.2752 13.1042 3.2626 13.0115 3.25 12.9192C3.25 12.7293 3.25 12.5402 3.25 12.3507Z" fill="#DC3545" stroke="#DC3545" stroke-width="0.3"/>
<path d="M10.8498 10.22C10.8498 9.53685 10.8494 8.85369 10.8498 8.17053C10.8502 7.72444 11.1127 7.42922 11.5045 7.43166C11.8882 7.4341 12.1495 7.72688 12.1499 8.15995C12.1507 9.54661 12.1507 10.9329 12.1499 12.3195C12.1495 12.753 11.8886 13.0462 11.5049 13.0486C11.1131 13.0511 10.8502 12.7558 10.8498 12.3098C10.8494 11.6132 10.8498 10.9166 10.8498 10.22Z" fill="#DC3545" stroke="#DC3545" stroke-width="0.3"/>
<path d="M15.615 17.6127C15.615 18.1669 15.6175 18.7212 15.6142 19.2754C15.6118 19.6894 15.3383 19.9814 14.9648 19.9793C14.5937 19.9773 14.317 19.6817 14.3158 19.2693C14.3125 18.1539 14.3129 17.0389 14.3158 15.9235C14.3166 15.5693 14.5267 15.2956 14.8291 15.2346C15.1444 15.1708 15.4525 15.3306 15.5663 15.6327C15.6033 15.7307 15.6122 15.8434 15.613 15.9495C15.6175 16.5042 15.615 17.0584 15.615 17.6127Z" fill="#DC3545" stroke="#DC3545" stroke-width="0.3"/>
<path d="M18.216 17.606C18.216 18.1603 18.2184 18.7145 18.2152 19.2688C18.2128 19.6848 17.9445 19.9771 17.5715 19.9788C17.2 19.9804 16.9184 19.6848 16.9171 19.2745C16.9135 18.159 16.9139 17.044 16.9171 15.9286C16.9184 15.5126 17.1898 15.2239 17.5662 15.2227C17.9466 15.2214 18.2132 15.5053 18.2156 15.9229C18.218 16.4837 18.216 17.0448 18.216 17.606Z" fill="#DC3545" stroke="#DC3545" stroke-width="0.3"/>
<path d="M11.5093 2.23651C12.3757 2.23651 13.2418 2.23285 14.1078 2.23854C14.4256 2.24058 14.6804 2.46342 14.7406 2.76515C14.7975 3.04939 14.6349 3.35803 14.3533 3.47189C14.2558 3.51134 14.1436 3.53167 14.0383 3.53167C12.3465 3.53533 10.6546 3.53533 8.96275 3.5333C8.61649 3.53289 8.37143 3.35966 8.27959 3.06606C8.19627 2.79971 8.28406 2.50733 8.53359 2.3581C8.65917 2.28287 8.82417 2.24261 8.97169 2.24098C9.81742 2.23041 10.6636 2.2357 11.5093 2.2357C11.5093 2.2357 11.5093 2.2361 11.5093 2.23651Z" fill="#DC3545" stroke="#DC3545" stroke-width="0.3"/>
</svg>
