<svg width="80" height="81" viewBox="0 0 80 81" fill="none" xmlns="http://www.w3.org/2000/svg">
<path d="M42.0781 10.5118C40.9371 8.34354 37.8396 8.32604 36.6741 10.482L8.75648 62.1086C8.50399 62.575 8.37699 63.0991 8.38793 63.6294C8.39887 64.1598 8.54736 64.6782 8.81886 65.1338C9.09037 65.5895 9.47558 65.9669 9.93676 66.2289C10.3979 66.491 10.9193 66.6288 11.4497 66.6288H66.5517C67.0794 66.6291 67.5983 66.493 68.0579 66.2337C68.5175 65.9744 68.9024 65.6008 69.1751 65.149C69.4478 64.6972 69.5992 64.1826 69.6145 63.6551C69.6298 63.1276 69.5085 62.6051 69.2625 62.1383L42.0781 10.5118ZM32.8259 8.39954C35.6556 3.16706 43.1788 3.20906 45.9508 8.47304L73.1335 60.1013C75.7409 65.0538 72.1499 71.0038 66.5535 71.0038H11.448C5.81299 71.0038 2.2255 64.9838 4.90649 60.0278L32.8259 8.39954ZM39.0016 23.7505C40.2091 23.7505 41.1891 24.7305 41.1891 25.938V46.0629C41.1891 46.643 40.9586 47.1994 40.5484 47.6097C40.1381 48.0199 39.5818 48.2504 39.0016 48.2504C38.4214 48.2504 37.865 48.0199 37.4548 47.6097C37.0446 47.1994 36.8141 46.643 36.8141 46.0629V25.938C36.8141 24.7305 37.7941 23.7505 39.0016 23.7505ZM39.0016 58.7503C39.9298 58.7503 40.8201 58.3816 41.4765 57.7252C42.1328 57.0688 42.5016 56.1786 42.5016 55.2503C42.5016 54.3221 42.1328 53.4318 41.4765 52.7755C40.8201 52.1191 39.9298 51.7504 39.0016 51.7504C38.0733 51.7504 37.1831 52.1191 36.5267 52.7755C35.8704 53.4318 35.5016 54.3221 35.5016 55.2503C35.5016 56.1786 35.8704 57.0688 36.5267 57.7252C37.1831 58.3816 38.0733 58.7503 39.0016 58.7503Z" fill="#FFC430"/>
</svg>
