<svg width="14" height="14" viewBox="0 0 14 14" fill="#C5C6C9" xmlns="http://www.w3.org/2000/svg">
<g clip-path="url(#clip0_15896_5178)">
<path d="M8.23742 7.00022L13.7439 1.49438C14.0857 1.15257 14.0857 0.598385 13.7439 0.256602C13.4021 -0.0852084 12.8479 -0.0852084 12.5061 0.256602L7.00022 5.76302L1.49438 0.256602C1.15257 -0.0852084 0.598385 -0.0852084 0.256602 0.256602C-0.0851811 0.598412 -0.0852084 1.15259 0.256602 1.49438L5.76302 7.00022L0.256602 12.5061C-0.0852084 12.8479 -0.0852084 13.4021 0.256602 13.7439C0.598412 14.0857 1.15259 14.0857 1.49438 13.7439L7.00022 8.23742L12.5061 13.7439C12.8479 14.0857 13.4021 14.0857 13.7438 13.7439C14.0857 13.4021 14.0857 12.8479 13.7438 12.5061L8.23742 7.00022Z" />
</g>
<defs>
<clipPath id="clip0_15896_5178">
<rect width="14" height="14" fill="white"/>
</clipPath>
</defs>
</svg>
